<svg width="20" height="20" viewBox="0 0 20 20" fill="none" xmlns="http://www.w3.org/2000/svg">
<path fill-rule="evenodd" clip-rule="evenodd" d="M13.9946 1.75V1.125H12.7446V1.75V2.5H7.26295V1.75V1.125H6.01295V1.75V2.5H5.80328C3.70279 2.5 2 4.20279 2 6.30328V14.6967C2 16.7972 3.70279 18.5 5.80328 18.5H14.1967C16.2972 18.5 18 16.7972 18 14.6967V6.30328C18 4.20279 16.2972 2.5 14.1967 2.5H13.9946V1.75ZM12.7446 3.75V4.375H13.9946V3.75H14.1967C15.6069 3.75 16.75 4.89314 16.75 6.30328V6.76901H3.25V6.30328C3.25 4.89314 4.39314 3.75 5.80328 3.75H6.01295V4.375H7.26295V3.75H12.7446ZM3.25 8.01901V14.6967C3.25 16.1069 4.39314 17.25 5.80328 17.25H14.1967C15.6069 17.25 16.75 16.1069 16.75 14.6967V8.01901H3.25ZM13.7017 10.4663C13.3565 10.4663 13.0767 10.7461 13.0767 11.0913C13.0767 11.4365 13.3565 11.7163 13.7017 11.7163H13.7094C14.0546 11.7163 14.3344 11.4365 14.3344 11.0913C14.3344 10.7461 14.0546 10.4663 13.7094 10.4663H13.7017ZM9.37884 11.0913C9.37884 10.7461 9.65867 10.4663 10.0038 10.4663H10.0116C10.3567 10.4663 10.6366 10.7461 10.6366 11.0913C10.6366 11.4365 10.3567 11.7163 10.0116 11.7163H10.0038C9.65867 11.7163 9.37884 11.4365 9.37884 11.0913ZM6.29828 10.4663C5.9531 10.4663 5.67328 10.7461 5.67328 11.0913C5.67328 11.4365 5.9531 11.7163 6.29828 11.7163H6.306C6.65118 11.7163 6.931 11.4365 6.931 11.0913C6.931 10.7461 6.65118 10.4663 6.306 10.4663H6.29828ZM13.0767 14.33C13.0767 13.9849 13.3565 13.705 13.7017 13.705H13.7094C14.0546 13.705 14.3344 13.9849 14.3344 14.33C14.3344 14.6752 14.0546 14.955 13.7094 14.955H13.7017C13.3565 14.955 13.0767 14.6752 13.0767 14.33ZM10.0038 13.705C9.65867 13.705 9.37884 13.9849 9.37884 14.33C9.37884 14.6752 9.65867 14.955 10.0038 14.955H10.0116C10.3567 14.955 10.6366 14.6752 10.6366 14.33C10.6366 13.9849 10.3567 13.705 10.0116 13.705H10.0038ZM5.67328 14.33C5.67328 13.9849 5.9531 13.705 6.29828 13.705H6.306C6.65118 13.705 6.931 13.9849 6.931 14.33C6.931 14.6752 6.65118 14.955 6.306 14.955H6.29828C5.9531 14.955 5.67328 14.6752 5.67328 14.33Z" fill="#003B4D" fill-opacity="0.6"/>
</svg>
