<svg width="20" height="20" viewBox="0 0 20 20" fill="none" xmlns="http://www.w3.org/2000/svg">
<path d="M15.9157 6H12.6032C11.9805 6 11.4011 5.56181 11.0811 5L10.5189 3.90615C10.1989 3.34434 9.61946 3 8.99675 3H3.78162C2.79567 3 2 3.83366 2 4.86667L2 7.95649C2 8.06005 2 7.86602 2 7.97475V14.8162C2 16.0214 2.93406 17 4.08433 17M15.9157 6C17.0659 6 18 6.77864 18 7.97475V14.8162C18 16.0214 17.0659 17 15.9157 17M15.9157 6H2V14.8586C2 16.0404 2.93406 17 4.08433 17M15.9157 6C17.0659 6 18 6.9596 18 8.15023V14.8586C18 16.0404 17.0659 17 15.9157 17M4.08433 17H15.9157" stroke="#003B4D" stroke-opacity="0.6" stroke-width="1.25" stroke-linecap="round" stroke-linejoin="round"/>
</svg>
