<svg width="28" height="28" viewBox="0 0 28 28" fill="none" xmlns="http://www.w3.org/2000/svg">
<path d="M8.77438 15.397C8.00321 15.397 7.37671 14.7705 7.37671 14.0005C7.37671 13.2305 8.00321 12.6028 8.77438 12.6028C9.54554 12.6028 10.172 13.2305 10.172 14.0005C10.172 14.7705 9.54554 15.397 8.77438 15.397Z" fill="white"/>
<path d="M14.0005 15.397C13.2293 15.397 12.6028 14.7705 12.6028 14.0005C12.6028 13.2305 13.2293 12.6028 14.0005 12.6028C14.7716 12.6028 15.3981 13.2305 15.3981 14.0005C15.3981 14.7705 14.7716 15.397 14.0005 15.397Z" fill="white"/>
<path fill-rule="evenodd" clip-rule="evenodd" d="M2.80005 8.12468C2.80005 5.18398 5.18395 2.80008 8.12464 2.80008H19.8755C22.8162 2.80008 25.2001 5.18398 25.2001 8.12467V19.8755C25.2001 22.8162 22.8162 25.2001 19.8755 25.2001H8.12464C5.18395 25.2001 2.80005 22.8162 2.80005 19.8755V8.12468Z" stroke="white" stroke-width="1.5"/>
<path d="M19.2258 15.397C18.4546 15.397 17.8281 14.7705 17.8281 14.0005C17.8281 13.2305 18.4546 12.6028 19.2258 12.6028C19.997 12.6028 20.6235 13.2305 20.6235 14.0005C20.6235 14.7705 19.997 15.397 19.2258 15.397Z" fill="white"/>
</svg>
