<svg width="28" height="28" viewBox="0 0 28 28" fill="none" xmlns="http://www.w3.org/2000/svg">
<path fill-rule="evenodd" clip-rule="evenodd" d="M3.55005 5.60002C3.55005 4.46784 4.46787 3.55002 5.60005 3.55002C6.73224 3.55002 7.65005 4.46784 7.65005 5.60002C7.65005 5.97269 7.55062 6.32212 7.37682 6.62325L6.62328 7.37679C6.32216 7.55058 5.97272 7.65002 5.60005 7.65002C4.46787 7.65002 3.55005 6.73221 3.55005 5.60002ZM9.15005 5.60002C9.15005 6.30893 8.94226 6.96931 8.58426 7.52357L9.53794 8.47725C10.2704 7.95634 11.1661 7.65002 12.1334 7.65002H15.8667C16.834 7.65002 17.7297 7.95634 18.4622 8.47725L19.4159 7.52357C19.0579 6.96931 18.8501 6.30893 18.8501 5.60002C18.8501 3.63941 20.4395 2.05002 22.4001 2.05002C24.3607 2.05002 25.9501 3.63941 25.9501 5.60002C25.9501 7.56063 24.3607 9.15002 22.4001 9.15002C21.6912 9.15002 21.0308 8.94223 20.4765 8.58423L19.5228 9.53791C20.0438 10.2704 20.3501 11.1661 20.3501 12.1334V15.8667C20.3501 16.834 20.0438 17.7297 19.5228 18.4621L20.4765 19.4158C21.0308 19.0578 21.6912 18.85 22.4001 18.85C24.3607 18.85 25.9501 20.4394 25.9501 22.4C25.9501 24.3607 24.3607 25.95 22.4001 25.95C20.4395 25.95 18.8501 24.3607 18.8501 22.4C18.8501 21.6911 19.0579 21.0308 19.4159 20.4765L18.4622 19.5228C17.7297 20.0437 16.834 20.35 15.8667 20.35H12.1334C11.1661 20.35 10.2704 20.0437 9.53794 19.5228L8.58426 20.4765C8.94226 21.0308 9.15005 21.6911 9.15005 22.4C9.15005 24.3607 7.56066 25.95 5.60005 25.95C3.63944 25.95 2.05005 24.3607 2.05005 22.4C2.05005 20.4394 3.63944 18.85 5.60005 18.85C6.30896 18.85 6.96934 19.0578 7.5236 19.4158L8.47728 18.4621C7.95637 17.7297 7.65005 16.834 7.65005 15.8667V12.1334C7.65005 11.1661 7.95637 10.2704 8.47728 9.53791L7.5236 8.58423C6.96934 8.94223 6.30896 9.15002 5.60005 9.15002C3.63944 9.15002 2.05005 7.56063 2.05005 5.60002C2.05005 3.63941 3.63944 2.05002 5.60005 2.05002C7.56066 2.05002 9.15005 3.63941 9.15005 5.60002ZM21.3768 20.6233L20.6233 21.3768C20.4495 21.6779 20.3501 22.0274 20.3501 22.4C20.3501 23.5322 21.2679 24.45 22.4001 24.45C23.5323 24.45 24.4501 23.5322 24.4501 22.4C24.4501 21.2679 23.5323 20.35 22.4001 20.35C22.0274 20.35 21.678 20.4495 21.3768 20.6233ZM21.3768 7.37679C21.678 7.55058 22.0274 7.65002 22.4001 7.65002C23.5323 7.65002 24.4501 6.73221 24.4501 5.60002C24.4501 4.46784 23.5323 3.55002 22.4001 3.55002C21.2679 3.55002 20.3501 4.46784 20.3501 5.60002C20.3501 5.97269 20.4495 6.32213 20.6233 6.62325L21.3768 7.37679ZM5.60005 20.35C4.46787 20.35 3.55005 21.2679 3.55005 22.4C3.55005 23.5322 4.46787 24.45 5.60005 24.45C6.73224 24.45 7.65005 23.5322 7.65005 22.4C7.65005 22.0274 7.55062 21.6779 7.37682 21.3768L6.62328 20.6233C6.32216 20.4495 5.97272 20.35 5.60005 20.35ZM12.1334 9.15002C10.4857 9.15002 9.15005 10.4857 9.15005 12.1334V15.8667C9.15005 17.5143 10.4857 18.85 12.1334 18.85H15.8667C17.5144 18.85 18.8501 17.5143 18.8501 15.8667V12.1334C18.8501 10.4857 17.5144 9.15002 15.8667 9.15002H12.1334ZM11.2001 14.75H16.8001V13.25H11.2001V14.75Z" fill="white"/>
</svg>
